<?xml version="1.0" standalone="no"?>
<!DOCTYPE svg PUBLIC "-//W3C//DTD SVG 20010904//EN"
 "http://www.w3.org/TR/2001/REC-SVG-20010904/DTD/svg10.dtd">
<svg version="1.0" xmlns="http://www.w3.org/2000/svg"
 width="640.000000pt" height="640.000000pt" viewBox="0 0 640.000000 640.000000"
 preserveAspectRatio="xMidYMid meet">
<metadata>
Created by potrace 1.11, written by Peter Selinger 2001-2013
</metadata>
<g transform="translate(0.000000,640.000000) scale(0.100000,-0.100000)"
fill="#000000" stroke="none">
<path d="M4600 4326 l0 -124 -33 -44 c-40 -52 -83 -82 -151 -106 -47 -16 -177
-17 -1851 -22 l-1800 -5 -7 -175 c-4 -96 -4 -290 -1 -431 l6 -256 240 -6 c132
-4 943 -7 1802 -7 1724 0 1619 4 1707 -63 74 -56 88 -93 88 -229 0 -65 3 -118
7 -118 11 0 279 173 652 422 411 273 621 419 622 433 2 11 -152 118 -623 432
-403 269 -641 423 -651 423 -4 0 -7 -56 -7 -124z"/>
<path d="M1050 2795 c-389 -252 -706 -469 -703 -481 3 -16 383 -275 698 -477
l150 -97 3 88 3 88 60 33 c126 69 41 65 1332 68 l1167 4 0 289 c0 160 -1 291
-2 291 -2 1 -529 5 -1173 9 -1298 7 -1214 2 -1332 73 l-52 31 -3 88 -3 88
-145 -95z"/>
</g>
</svg>
